<svg version="1.1" id="Layer_1" xmlns="http://www.w3.org/2000/svg" xmlns:xlink="http://www.w3.org/1999/xlink" x="0px" y="0px" viewBox="0 0 64 64" enable-background="new 0 0 64 64" xml:space="preserve">
<g>
	<g>
		<g>
			<path fill="#29D331" d="M32,0c17.7,0,32,14.3,32,32S49.7,64,32,64S0,49.7,0,32S14.3,0,32,0z" id="id_101"></path>
		</g>
	</g>
	<g>
		<g>
			<path fill="#FFFFFF" d="M14,20.9c-2.9,4.3,0.6,13.3,8.1,20.9s16.6,11,20.9,8.1c0.2-0.1,0.3-0.2,0.4-0.3l2.9-2.9
				c0.9-0.9,0.8-2.4-0.2-3.5L41,38.2c-1-1-2.6-1.1-3.5-0.2l-3.4,3.4c-0.3,0.3-0.9,0.4-1.3,0.1c-1.9-1.3-3.7-2.8-5.5-4.6
				c-1.8-1.8-3.3-3.7-4.6-5.5c-0.3-0.4-0.3-1,0.1-1.3l3.4-3.4c0.9-0.9,0.8-2.4-0.2-3.5l-5.2-5.2c-1-1-2.6-1.1-3.5-0.2l-2.9,2.9
				C14.2,20.6,14.1,20.8,14,20.9z" id="id_102"></path>
		</g>
	</g>
	<g>
		<g>
			<path fill="#FFFFFF" d="M41.1,31.9h-3c0-3.9-3.2-7-7-7v-3C36.6,21.9,41.1,26.4,41.1,31.9z" id="id_103"></path>
		</g>
	</g>
	<g>
		<g>
			<path fill="#FFFFFF" d="M47.5,33h-3c0-8-6.5-14.5-14.5-14.5v-3C39.6,15.5,47.5,23.4,47.5,33z" id="id_104"></path>
		</g>
	</g>
</g>
</svg>